<?xml version="1.0" encoding="utf-8"?>
<!-- Generator: Adobe Illustrator 23.1.0, SVG Export Plug-In . SVG Version: 6.00 Build 0)  -->
<svg version="1.1" id="Слой_1" xmlns="http://www.w3.org/2000/svg" xmlns:xlink="http://www.w3.org/1999/xlink" x="0px" y="0px"
	 viewBox="0 0 100 60" style="enable-background:new 0 0 100 60;" xml:space="preserve">
<style type="text/css">
	.st0{fill:#FFFFFF;}
</style>
<path class="st0" d="M32.68,6l42.08,42.08c1.66,1.66,1.66,4.35,0,6.02l-0.42,0.42c-1.66,1.66-4.35,1.66-6.02,0L26.25,12.43
	c-1.66-1.66-1.66-4.35,0-6.02L26.67,6C28.33,4.34,31.02,4.34,32.68,6z"/>
<path class="st0" d="M74.76,12.43L32.68,54.51c-1.66,1.66-4.35,1.66-6.02,0l-0.42-0.42c-1.66-1.66-1.66-4.35,0-6.02L68.32,6
	c1.66-1.66,4.35-1.66,6.02,0l0.42,0.42C76.42,8.08,76.42,10.77,74.76,12.43z"/>
</svg>
