<?xml version="1.0" encoding="utf-8"?>
<!-- Svg Vector Icons : http://www.onlinewebfonts.com/icon -->
<!DOCTYPE svg PUBLIC "-//W3C//DTD SVG 1.1//EN" "http://www.w3.org/Graphics/SVG/1.1/DTD/svg11.dtd">
<svg version="1.1" xmlns="http://www.w3.org/2000/svg" xmlns:xlink="http://www.w3.org/1999/xlink" x="0px" y="0px" viewBox="0 0 1000 1000" enable-background="new 0 0 1000 1000" xml:space="preserve">
<metadata> Svg Vector Icons : http://www.onlinewebfonts.com/icon </metadata>
<g><path d="M980,910c0-190.5-111-355.2-271.9-432.7C752.8,427.7,780,362,780,290c0-154.6-125.4-280-280-280c-154.6,0-280,125.4-280,280c0,72,27.2,137.7,71.9,187.3C131,554.9,20,719.5,20,910c0,13.6,0.6,26.9,1.7,40H20l20,40h920l20-40h-1.7C979.4,936.9,980,923.6,980,910z M256.1,290c0-134.7,109.2-243.9,243.9-243.9c134.7,0,243.9,109.2,243.9,243.9c0,134.7-109.2,243.9-243.9,243.9C365.3,533.9,256.1,424.7,256.1,290z M61.8,950c-1.2-13-1.8-26.4-1.8-40c0-180.1,108.2-334.9,263.1-403c48.2,39.4,109.8,63,176.9,63c67.1,0,128.7-23.6,176.9-63C831.8,575.1,940,729.9,940,910c0,13.6-0.6,26.9-1.8,40H61.8z"/></g>
</svg>