<?xml version="1.0" encoding="utf-8"?>
<!-- Generator: Adobe Illustrator 23.1.0, SVG Export Plug-In . SVG Version: 6.00 Build 0)  -->
<svg version="1.1" id="Слой_1" xmlns="http://www.w3.org/2000/svg" xmlns:xlink="http://www.w3.org/1999/xlink" x="0px" y="0px"
	 viewBox="0 0 100 60" style="enable-background:new 0 0 100 60;" xml:space="preserve">
<style type="text/css">
	.st0{fill:#B331CB;}
</style>
<path class="st0" d="M85,55.35H15c-2.76,0-5-2.24-5-5v-0.69c0-2.76,2.24-5,5-5H85c2.76,0,5,2.24,5,5v0.69
	C90,53.11,87.76,55.35,85,55.35z"/>
<path class="st0" d="M85,35.35H15c-2.76,0-5-2.24-5-5v-0.69c0-2.76,2.24-5,5-5H85c2.76,0,5,2.24,5,5v0.69
	C90,33.11,87.76,35.35,85,35.35z"/>
<path class="st0" d="M85,15.35H15c-2.76,0-5-2.24-5-5V9.65c0-2.76,2.24-5,5-5H85c2.76,0,5,2.24,5,5v0.69
	C90,13.11,87.76,15.35,85,15.35z"/>
</svg>
